<svg xmlns="http://www.w3.org/2000/svg" viewBox="0 0 100 100" id="pots-and-pans">
  <g>
    <path d="M51 32a1.49 1.49 0 00-1.91-.91L28.77 38.22a6.56 6.56 0 00-6.23-4.54H17.79V31.31h1.33a1.5 1.5 0 000-3H13.47a1.5 1.5 0 000 3h1.32v2.37H10A6.55 6.55 0 003.5 40.22V54.65a5.27 5.27 0 005.26 5.27H23.82a5.27 5.27 0 005.26-5.27V41.29l21-7.38A1.51 1.51 0 0051 32zM10 36.68h12.5a3.55 3.55 0 013.21 2H6.83A3.57 3.57 0 0110 36.68zm16 18a2.27 2.27 0 01-2.26 2.27H8.76A2.27 2.27 0 016.5 54.65V41.72H26.08zM95 24.32H60.82L39.07 16.67a1.5 1.5 0 00-1 2.83l21 7.38V29a5.27 5.27 0 005.26 5.27H91.24A5.27 5.27 0 0096.5 29V25.82A1.5 1.5 0 0095 24.32zM93.5 29a2.27 2.27 0 01-2.26 2.27H64.33A2.27 2.27 0 0162.07 29V27.32H93.5zM88 54.06H83.7A6.81 6.81 0 0077 48.17H62.9V44.91h1.8a1.5 1.5 0 000-3H58.1a1.5 1.5 0 100 3h1.8v3.26H45.82a6.8 6.8 0 00-6.72 5.89H34.84a1.5 1.5 0 000 3H39V78.15a5.27 5.27 0 005.27 5.26H78.5a5.27 5.27 0 005.26-5.26V57.06H88a1.5 1.5 0 000-3zM45.82 51.17H77a3.8 3.8 0 013.68 2.89H42.14A3.81 3.81 0 0145.82 51.17zm34.94 27a2.26 2.26 0 01-2.26 2.26H44.3A2.27 2.27 0 0142 78.15V57.06H80.76z"></path>
  </g>
</svg>
